<svg xmlns="http://www.w3.org/2000/svg" viewBox="0 0 186.65 37.41"><defs><style>.cls-1{fill:#1c548e;}.cls-2{fill:#fff;}.cls-3{fill:#5388c7;}.cls-4{fill:#262626;}</style></defs><title>logo</title><g id="Laag_2" data-name="Laag 2"><g id="Logo"><rect class="cls-1" y="8.64" width="18.35" height="18.35" rx="2.22"/><rect class="cls-1" x="47.42" y="8.64" width="18.35" height="18.35" rx="2.3"/><rect class="cls-2" x="17.5" y="1.86" width="31.19" height="31.19"/><path class="cls-3" d="M47.4,1.16H16.23V34.47H49.54V1.16ZM43.49,32.33H18.37V24.08h21V21.94h-21V7.21L22.28,3.3H47.4v8.41H27.49v2.14H47.4V28.42Z"/><path class="cls-3" d="M84,19.93a21.9,21.9,0,0,1-3-.48V16.32q2.39.24,6,.24a5.43,5.43,0,0,0,2.46-.44,1.62,1.62,0,0,0,.83-1.57v-.72a1.71,1.71,0,0,0-.52-1.35A2.15,2.15,0,0,0,88.31,12H86.62a6.53,6.53,0,0,1-4.4-1.28,5.36,5.36,0,0,1-1.46-4.2v-1c0-3.7,2.13-5.56,6.4-5.56a25.7,25.7,0,0,1,3.1.2c1.07.13,2,.29,2.89.47V3.8c-2.44-.16-4.29-.24-5.54-.24a4.46,4.46,0,0,0-2.3.47,1.83,1.83,0,0,0-.77,1.72v.54a1.81,1.81,0,0,0,.57,1.48,2.75,2.75,0,0,0,1.75.47h2a5.23,5.23,0,0,1,3.92,1.4,5.11,5.11,0,0,1,1.35,3.68v1.13a6.3,6.3,0,0,1-.83,3.49,4.22,4.22,0,0,1-2.33,1.71,12.72,12.72,0,0,1-3.72.47A29.21,29.21,0,0,1,84,19.93Z"/><path class="cls-3" d="M103.37,3.72H97.94V.16h14.85V3.72h-5.46V20h-4Z"/><path class="cls-3" d="M120.76.16h5L132,20h-4.12l-1.26-4.15h-6.74L118.62,20h-4.07Zm4.89,12.09-2.43-8.69-2.43,8.69Z"/><path class="cls-3" d="M137.51,18.86a4.77,4.77,0,0,1-1.15-3.58V.16h4V14.63a1.54,1.54,0,0,0,1.76,1.74h6.26V20H141A4.94,4.94,0,0,1,137.51,18.86Z"/><path class="cls-3" d="M154.33,19.24c-1-.58-1.44-1.74-1.44-3.51v-11a4.17,4.17,0,0,1,1.32-3.46,5,5,0,0,1,3.2-1.06q4.09,0,8.56.35V3.83h-7.38c-1.16,0-1.74.54-1.74,1.63V8.32l7.84.21v3.13l-7.84.22v2.73c0,1.17.55,1.76,1.66,1.76H166v3.32a74.17,74.17,0,0,1-8.27.4A6.52,6.52,0,0,1,154.33,19.24Z"/><path class="cls-3" d="M180.5,10.25,186.57,20h-4.39l-4.12-6.58L174.29,20H169.9L176,10,169.82.16h4.39l4.23,6.77L182.29.16h4.36Z"/><path class="cls-4" d="M80.76,34V23.82h2.81q5.39,0,5.38,5a5,5,0,0,1-1.49,3.78,5.52,5.52,0,0,1-4,1.43ZM82,24.9v8h1.51a4.28,4.28,0,0,0,3.12-1.07,4,4,0,0,0,1.11-3c0-2.6-1.38-3.9-4.16-3.9Z"/><path class="cls-4" d="M92.12,24.88a.72.72,0,0,1-.53-.21.76.76,0,0,1,.53-1.3.73.73,0,0,1,.54.22.71.71,0,0,1,.23.54.72.72,0,0,1-.23.53A.73.73,0,0,1,92.12,24.88ZM92.69,34H91.52V26.73h1.17Z"/><path class="cls-4" d="M102,33.41q0,4-3.83,4a5.16,5.16,0,0,1-2.36-.51V35.74a4.89,4.89,0,0,0,2.34.68c1.79,0,2.69-1,2.69-2.85v-.8h0a2.94,2.94,0,0,1-4.68.42,3.86,3.86,0,0,1-.83-2.6,4.54,4.54,0,0,1,.89-2.94,3,3,0,0,1,2.44-1.09,2.37,2.37,0,0,1,2.18,1.17h0v-1H102Zm-1.16-2.7V29.63a2.09,2.09,0,0,0-.59-1.48,1.93,1.93,0,0,0-1.46-.62,2,2,0,0,0-1.69.79,3.52,3.52,0,0,0-.61,2.19,3,3,0,0,0,.59,1.95,1.9,1.9,0,0,0,1.55.72,2,2,0,0,0,1.59-.69A2.61,2.61,0,0,0,100.81,30.71Z"/><path class="cls-4" d="M105.65,24.88a.72.72,0,0,1-.53-.21.76.76,0,0,1,.53-1.3.73.73,0,0,1,.54.22.71.71,0,0,1,.23.54.72.72,0,0,1-.23.53A.73.73,0,0,1,105.65,24.88Zm.57,9.11h-1.17V26.73h1.17Z"/><path class="cls-4" d="M112.67,33.92a2.26,2.26,0,0,1-1.09.23c-1.27,0-1.9-.71-1.9-2.13v-4.3h-1.25v-1h1.25V25l1.16-.37v2.15h1.83v1h-1.83v4.09a1.69,1.69,0,0,0,.25,1.05,1,1,0,0,0,.82.31,1.23,1.23,0,0,0,.76-.24Z"/><path class="cls-4" d="M120.15,34H119V32.86h0a2.44,2.44,0,0,1-2.24,1.3,2.41,2.41,0,0,1-1.7-.57,2,2,0,0,1-.61-1.53q0-2,2.4-2.37l2.18-.3q0-1.86-1.5-1.86a3.56,3.56,0,0,0-2.37.9V27.24a4.45,4.45,0,0,1,2.47-.68c1.71,0,2.56.9,2.56,2.71ZM119,30.32l-1.76.24A2.86,2.86,0,0,0,116,31a1.17,1.17,0,0,0-.41,1,1.14,1.14,0,0,0,.38.87,1.5,1.5,0,0,0,1,.33,1.86,1.86,0,0,0,1.43-.6A2.17,2.17,0,0,0,119,31Z"/><path class="cls-4" d="M124.23,34h-1.16V23.23h1.16Z"/><path class="cls-4" d="M131.7,33.58v-1.4a3.23,3.23,0,0,0,.58.38,5.56,5.56,0,0,0,.71.29l.75.18a4.41,4.41,0,0,0,.7.06,2.73,2.73,0,0,0,1.64-.41,1.37,1.37,0,0,0,.54-1.17,1.4,1.4,0,0,0-.18-.72,2.17,2.17,0,0,0-.5-.56,5.59,5.59,0,0,0-.76-.48l-.94-.48c-.35-.18-.68-.37-1-.55a4.21,4.21,0,0,1-.8-.61,2.4,2.4,0,0,1-.54-.76,2.33,2.33,0,0,1-.19-1,2.39,2.39,0,0,1,.3-1.21,2.6,2.6,0,0,1,.81-.84,3.41,3.41,0,0,1,1.13-.5,5.07,5.07,0,0,1,1.29-.16,5,5,0,0,1,2.19.36v1.34a3.94,3.94,0,0,0-2.31-.63,3.46,3.46,0,0,0-.78.09,2.11,2.11,0,0,0-.69.26,1.53,1.53,0,0,0-.5.48,1.23,1.23,0,0,0-.19.71,1.54,1.54,0,0,0,.14.67,1.73,1.73,0,0,0,.43.52,3.74,3.74,0,0,0,.69.45l.94.49c.37.18.71.37,1,.56a4.88,4.88,0,0,1,.86.66,3,3,0,0,1,.58.81,2.14,2.14,0,0,1,.22,1,2.66,2.66,0,0,1-.29,1.28,2.47,2.47,0,0,1-.8.84,3.49,3.49,0,0,1-1.15.48,6.87,6.87,0,0,1-1.38.14,4.59,4.59,0,0,1-.59,0,6.45,6.45,0,0,1-.73-.11,5.13,5.13,0,0,1-.7-.19A2.2,2.2,0,0,1,131.7,33.58Z"/><path class="cls-4" d="M146.31,30.65h-5.13a2.74,2.74,0,0,0,.65,1.87,2.26,2.26,0,0,0,1.72.66,3.58,3.58,0,0,0,2.26-.81v1.1a4.27,4.27,0,0,1-2.54.69,3.09,3.09,0,0,1-2.42-1,4.08,4.08,0,0,1-.88-2.78,4,4,0,0,1,1-2.77,3.1,3.1,0,0,1,2.39-1.06,2.72,2.72,0,0,1,2.21.92,3.84,3.84,0,0,1,.78,2.56Zm-1.19-1a2.37,2.37,0,0,0-.49-1.56,1.64,1.64,0,0,0-1.33-.57,1.9,1.9,0,0,0-1.4.59,2.73,2.73,0,0,0-.71,1.54Z"/><path class="cls-4" d="M152.58,27.9a1.43,1.43,0,0,0-.87-.23,1.48,1.48,0,0,0-1.25.7,3.29,3.29,0,0,0-.5,1.92V34H148.8V26.73H150v1.49h0a2.46,2.46,0,0,1,.76-1.19,1.71,1.71,0,0,1,1.14-.43,1.8,1.8,0,0,1,.69.1Z"/><path class="cls-4" d="M160.29,26.73,157.39,34h-1.14l-2.75-7.26h1.27L156.62,32a4.23,4.23,0,0,1,.25,1h0a4.79,4.79,0,0,1,.23-1l1.93-5.3Z"/><path class="cls-4" d="M162.86,24.88a.72.72,0,0,1-.53-.21.76.76,0,0,1,.53-1.3.73.73,0,0,1,.54.22.7.7,0,0,1,.22.54.71.71,0,0,1-.22.53A.73.73,0,0,1,162.86,24.88Zm.57,9.11h-1.17V26.73h1.17Z"/><path class="cls-4" d="M171.46,33.66a3.84,3.84,0,0,1-2,.5,3.28,3.28,0,0,1-2.5-1,3.65,3.65,0,0,1-1-2.62,4,4,0,0,1,1-2.89,3.62,3.62,0,0,1,2.75-1.08,3.74,3.74,0,0,1,1.68.35V28.1a2.91,2.91,0,0,0-1.73-.57,2.33,2.33,0,0,0-1.82.8,3,3,0,0,0-.72,2.1,2.9,2.9,0,0,0,.67,2,2.3,2.3,0,0,0,1.8.74,2.92,2.92,0,0,0,1.79-.63Z"/><path class="cls-4" d="M179.79,30.65h-5.13a2.69,2.69,0,0,0,.65,1.87,2.26,2.26,0,0,0,1.72.66,3.55,3.55,0,0,0,2.25-.81v1.1a4.23,4.23,0,0,1-2.53.69,3.07,3.07,0,0,1-2.42-1,4,4,0,0,1-.88-2.78,4,4,0,0,1,1-2.77,3.09,3.09,0,0,1,2.39-1.06,2.72,2.72,0,0,1,2.21.92,3.84,3.84,0,0,1,.78,2.56Zm-1.2-1a2.31,2.31,0,0,0-.48-1.56,1.64,1.64,0,0,0-1.33-.57,1.89,1.89,0,0,0-1.4.59,2.73,2.73,0,0,0-.71,1.54Z"/><path class="cls-4" d="M181.83,33.73V32.48a3.45,3.45,0,0,0,2.1.7q1.53,0,1.53-1a.94.94,0,0,0-.13-.49,1.23,1.23,0,0,0-.36-.36,2.82,2.82,0,0,0-.52-.28l-.65-.26a8.72,8.72,0,0,1-.85-.39,2.39,2.39,0,0,1-.61-.44,1.67,1.67,0,0,1-.37-.55,2.07,2.07,0,0,1-.12-.73,1.81,1.81,0,0,1,.23-.91,2.2,2.2,0,0,1,.63-.66,2.78,2.78,0,0,1,.89-.4,3.88,3.88,0,0,1,1-.13,4.14,4.14,0,0,1,1.69.32v1.18a3.31,3.31,0,0,0-1.85-.53,2.16,2.16,0,0,0-.59.08,1.55,1.55,0,0,0-.45.21,1.1,1.1,0,0,0-.29.32.87.87,0,0,0-.1.42,1,1,0,0,0,.1.47,1.07,1.07,0,0,0,.3.34,2.51,2.51,0,0,0,.49.27l.64.26c.32.13.61.25.87.38a3.21,3.21,0,0,1,.65.44,1.65,1.65,0,0,1,.56,1.33,1.74,1.74,0,0,1-.24.93,2,2,0,0,1-.63.66,2.72,2.72,0,0,1-.92.39,4.21,4.21,0,0,1-1.08.13A4.13,4.13,0,0,1,181.83,33.73Z"/></g></g></svg>